<svg xmlns="http://www.w3.org/2000/svg" viewBox="0 0 20 20"><defs><style>.cls-1{fill:#008a19;}</style></defs><g id="レイヤー_2" data-name="レイヤー 2"><g id="レイヤー_1-2" data-name="レイヤー 1"><path class="cls-1" d="M10,20A10,10,0,1,1,20,10,10,10,0,0,1,10,20ZM10,1a9,9,0,1,0,9,9A9,9,0,0,0,10,1Z"/><path class="cls-1" d="M15.75,13.81A8.5,8.5,0,0,0,4,13.81a.52.52,0,0,0,0,.72.53.53,0,0,0,.74,0,7.45,7.45,0,0,1,10.34,0,.51.51,0,0,0,.36.15h0a.5.5,0,0,0,.36-.16h0A.52.52,0,0,0,15.75,13.81Z"/><path id="パス_66" data-name="パス 66" class="cls-1" d="M9.86,10.6A3.13,3.13,0,1,1,13,7.47,3.16,3.16,0,0,1,9.86,10.6Zm0-5.24A2.12,2.12,0,1,0,12,7.47,2.12,2.12,0,0,0,9.86,5.36Z"/></g></g></svg>