<svg xmlns="http://www.w3.org/2000/svg" viewBox="0 0 36 36"><defs><style>.cls-1{fill:#006819;}</style></defs><g id="レイヤー_2" data-name="レイヤー 2"><g id="レイヤー_1-2" data-name="レイヤー 1"><path class="cls-1" d="M18,0A18,18,0,0,0,0,18H0v0A18,18,0,0,0,17.12,36c.29,0,.58,0,.88,0s.59,0,.88,0A18,18,0,0,0,36,18v0h0A18,18,0,0,0,18,0Zm-.13,6.5a5.32,5.32,0,0,1,5.44,5.18,5.32,5.32,0,0,1-5.44,5.19,5.31,5.31,0,0,1-5.43-5.19A5.31,5.31,0,0,1,17.87,6.5Zm0,24.54A13.27,13.27,0,0,1,7,25.51c0-3.46,7.25-5.36,10.87-5.36s10.82,1.9,10.87,5.36A13.26,13.26,0,0,1,17.87,31Z"/></g></g></svg>