<svg id="icon_return" xmlns="http://www.w3.org/2000/svg" width="19.606" height="18" viewBox="0 0 19.606 18">
  <path id="パス_68" data-name="パス 68" d="M3.586,9.787l.037-.035L9.013,5.44a.878.878,0,1,1,1.093,1.374L6.711,9.53h9.368a6.856,6.856,0,0,1,6.856,6.862,6.856,6.856,0,0,1-6.856,6.856H7.958a.878.878,0,0,1,0-1.756h8.122a5.1,5.1,0,0,0,5.1-5.1,5.1,5.1,0,0,0-5.1-5.106H6.695l3.6,2.9a.855.855,0,0,1,.321.591.884.884,0,0,1-.78.965.848.848,0,0,1-.645-.188L3.655,11.092a.908.908,0,0,1-.13-.13.808.808,0,0,1-.133-.223l-.011-.027a.075.075,0,0,1-.005-.013.393.393,0,0,1-.014-.042.8.8,0,0,1-.034-.247l0-.074a.232.232,0,0,1,0-.026l.026-.138a.691.691,0,0,1,.04-.114.461.461,0,0,1,.021-.045l.048-.085A.846.846,0,0,1,3.586,9.787Z" transform="translate(-3.329 -5.248)" fill="#666" fill-rule="evenodd"/>
</svg>
