<svg xmlns="http://www.w3.org/2000/svg" viewBox="0 0 36 36"><defs><style>.cls-1{fill:none;}.cls-2{fill:#008a19;}</style></defs><g id="レイヤー_2" data-name="レイヤー 2"><g id="レイヤー_1-2" data-name="レイヤー 1"><g id="楕円形_106" data-name="楕円形 106"><circle class="cls-1" cx="18" cy="18" r="18"/><path class="cls-2" d="M18,36A18,18,0,1,1,36,18,18,18,0,0,1,18,36ZM18,3A15,15,0,1,0,33,18,15,15,0,0,0,18,3Z"/></g><path id="account-circle-2" class="cls-2" d="M17.87,31A13.27,13.27,0,0,1,7,25.51c0-3.46,7.25-5.36,10.87-5.36s10.82,1.9,10.87,5.36A13.26,13.26,0,0,1,17.87,31m0-24.54a5.32,5.32,0,0,1,5.44,5.18,5.32,5.32,0,0,1-5.44,5.19,5.31,5.31,0,0,1-5.43-5.19A5.31,5.31,0,0,1,17.87,6.5"/></g></g></svg>