<?xml version="1.0" standalone="no"?>
<!DOCTYPE svg PUBLIC "-//W3C//DTD SVG 1.1//EN" "http://www.w3.org/Graphics/SVG/1.1/DTD/svg11.dtd" >
<svg xmlns="http://www.w3.org/2000/svg">
<metadata>Generated by IcoMoon</metadata>
<defs>
<font id="icomoon" horiz-adv-x="1024">
<font-face units-per-em="1024" ascent="960" descent="-64" />
<missing-glyph horiz-adv-x="1024" />
<glyph unicode="&#x20;" horiz-adv-x="512" d="" />
<glyph unicode="&#xe900;" glyph-name="card-account-details-outline" horiz-adv-x="1349" d="M1298.732 960h-1248.78c-27.587 0-49.951-22.364-49.951-49.951v0-924.098c0-27.587 22.364-49.951 49.951-49.951v0h1248.78c27.587 0 49.951 22.364 49.951 49.951v0 924.098c0 27.587-22.364 49.951-49.951 49.951v0zM1234.295 841.116v-785.233h-1122.154v785.233zM785.483 168.023v70.181c0 92.909-187.317 140.113-280.476 140.113s-280.226-47.204-280.226-140.113v-70.181h560.702zM505.007 728.976c-0.074 0-0.162 0-0.25 0-77.52 0-140.363-62.843-140.363-140.363s62.843-140.363 140.363-140.363c77.52 0 140.363 62.843 140.363 140.363v0c0 0.074 0 0.162 0 0.25 0 77.382-62.731 140.113-140.113 140.113 0 0 0 0 0 0v0zM785.483 728.976v-56.195h336.421v56.195h-336.421zM785.483 616.835v-56.195h336.421v56.195h-336.421z" />
<glyph unicode="&#xe901;" glyph-name="card-account-details" horiz-adv-x="1349" d="M1298.732 960h-1248.78c-27.587 0-49.951-22.364-49.951-49.951v0-924.098c0-27.587 22.364-49.951 49.951-49.951v0h1248.78c27.587 0 49.951 22.364 49.951 49.951v0 924.098c0 27.587-22.364 49.951-49.951 49.951v0zM786.482 617.085v55.945h449.561v-55.945zM1179.348 560.39v-55.945h-392.866v55.945zM786.482 729.225v55.945h449.561v-55.945zM449.561 341.604c112.14 0 336.421-61.19 336.421-173.331v-57.444h-672.593v57.444c0 112.14 224.281 173.331 336.172 173.331zM281.225 616.336c-0.001 0.223-0.002 0.486-0.002 0.749 0 92.969 75.366 168.336 168.336 168.336s168.336-75.366 168.336-168.336c0-92.969-75.366-168.335-168.334-168.336v0c-92.754 0.284-167.836 75.541-167.836 168.335 0 0 0 0 0 0.001v0z" />
<glyph unicode="&#xe902;" glyph-name="chart-timeline" horiz-adv-x="1370" d="M0-64v913.704h91.373v-822.31h822.31v-91.395zM411.21 118.745v136.982h456.863v-136.982zM228.487 347.21v137.004h456.819v-137.004zM868.669 709.547c1.779 137.588 112.843 248.652 250.262 250.429l0.169 0.002c0.020 0 0.043 0 0.066 0 138.346 0 250.497-112.151 250.497-250.497s-112.151-250.497-250.497-250.497c-138.346 0-250.497 112.151-250.497 250.497 0 0.023 0 0.047 0 0.070v-0.004zM940.258 709.547c0-0.020 0-0.043 0-0.066 0-98.808 80.1-178.908 178.908-178.908s178.908 80.1 178.908 178.908c0 98.808-80.1 178.908-178.908 178.908-0.023 0-0.047 0-0.070 0h0.004c-0.487 0.005-1.063 0.008-1.639 0.008-97.87 0-177.21-79.339-177.21-177.21 0-0.561 0.003-1.121 0.008-1.681l-0.001 0.086zM374.379 575.057v132.328h396.985v-132.328zM1083.239 673.73v178.842h53.769v-153.876l103.657-60.783-28.671-42.963z" />
<glyph unicode="&#xe903;" glyph-name="maintenance" horiz-adv-x="1573" d="M1573.307 724.583c0.001 0.254 0.002 0.554 0.002 0.854 0 96.452-61.929 178.439-148.194 208.367l-1.548 0.467v-184.732h-149.741v184.732c-88.036-30.642-150.085-112.919-150.085-209.688s62.049-179.047 148.531-209.216l1.554-0.472v-548.792c0-20.068 10.034-30.103 25.729-30.103h99.827c0.63-0.060 1.362-0.094 2.103-0.094 12.563 0 22.839 9.787 23.622 22.152l0.003 0.069v551.879c87.894 30.812 149.793 113.064 149.793 209.772 0 1.689-0.019 3.374-0.056 5.055l0.004-0.25zM455.14 960c-251.626 0-455.14-102.915-455.14-227.441s203.514-227.698 455.14-227.698 455.14 102.915 455.14 227.698-203.771 227.441-455.14 227.441zM0 618.581v-170.581c0-125.813 203.514-227.441 455.14-227.441s455.14 102.915 455.14 227.441v170.581c0-125.556-203.771-227.441-455.14-227.441s-455.14 101.885-455.14 227.441zM0 334.279v-171.867c0-125.813 203.514-227.698 455.14-227.698s455.14 102.915 455.14 227.441v172.125c0-125.813-203.771-227.441-455.14-227.441s-455.14 101.628-455.14 227.441z" />
<glyph unicode="&#xe904;" glyph-name="clipboard-edit-outline" horiz-adv-x="969" d="M879.661 417.273c7.322-0.154 13.878-3.31 18.509-8.284l0.014-0.016 62.416-62.416c4.959-4.731 8.042-11.39 8.042-18.77s-3.083-14.039-8.032-18.76l-48.779-48.779-99.955 99.977 48.769 48.769c4.822 5.006 11.537 8.157 18.99 8.299h0.026zM783.599 331.97l99.955-99.955-295.48-296.015h-100.383v100.533l295.908 295.416zM390.024 82.286l-97.517-97.517h-194.991c-53.789 0.17-97.347 43.728-97.517 97.5v682.676c0.158 53.798 43.721 97.368 97.5 97.538h203.841c20.503 57.271 74.305 97.509 137.505 97.509s117.003-40.237 137.187-96.492l0.318-1.017h203.825c53.789-0.17 97.347-43.728 97.517-97.5v-195.071l-97.495-97.602v292.636h-97.538v-97.517h-487.69v97.517h-97.453v-682.66h292.571zM438.857 862.483c-26.934 0-48.769-21.835-48.769-48.769s21.835-48.769 48.769-48.769c26.934 0 48.769 21.835 48.769 48.769v0c-0.073 26.905-21.864 48.696-48.762 48.769h-0.007z" />
<glyph unicode="&#xe905;" glyph-name="domain" horiz-adv-x="1138" d="M910.217 277.259h-113.76v-113.716h113.783zM910.24 504.869h-113.783v-113.783h113.783zM1024.022 49.76h-455.131v113.783h113.85v113.716h-113.85v113.85h113.85v113.783h-113.85v113.783h455.109zM455.109 732.434h-113.783v113.783h113.783zM455.109 504.891h-113.783v113.783h113.783zM455.109 277.348h-113.783v113.76h113.783zM455.109 49.783h-113.783v113.76h113.783zM227.566 732.434h-113.783v113.783h113.783zM227.566 504.891h-113.783v113.783h113.783zM227.566 277.348h-113.783v113.76h113.783zM227.566 49.783h-113.783v113.76h113.783zM568.891 732.434v227.566h-568.891v-1024h1137.783v796.435z" />
<glyph unicode="&#xe906;" glyph-name="format-list-bulleted-type" horiz-adv-x="1184" d="M160.012 608.012l159.988-288.012h-320l160.012 288.012zM31.988 960h256v-256h-256v256zM159.988-64c70.692 0 128 57.308 128 128s-57.308 128-128 128c-70.692 0-128-57.308-128-128v0c0-70.692 57.308-128 128-128 0.009 0 0.017 0 0.026 0h-0.001zM416.012 896v-128h768v128h-768zM416.012 0h768v128h-768v-128zM416.012 384h768v128h-768z" />
<glyph unicode="&#xe907;" glyph-name="forum" horiz-adv-x="1068" d="M800.857 426.095v480.518c0 29.484-23.902 53.386-53.386 53.386v0h-694.085c-29.484 0-53.386-23.902-53.386-53.386v0-703.64l213.566 169.691h533.905c29.484 0 53.386 23.902 53.386 53.386v0zM1014.423 746.39h-106.772v-480.475h-694.085v-106.772c0-29.484 23.902-53.386 53.386-53.386v0h587.334l213.566-169.735v757.026c0 29.484-23.902 53.386-53.386 53.386-0.015 0-0.031 0-0.046 0h0.002z" />
<glyph unicode="&#xe908;" d="M1010.916 107.236l-442.027 731.022c-7.991 22.386-29.010 38.119-53.703 38.119-9.024 0-17.557-2.101-25.137-5.841l0.333 0.149c-14.73-6.48-26.192-18.126-32.276-32.591l-0.151-0.404-444.871-729.884c-29.582-48.924-7.396-86.471 49.493-86.471h898.844c56.889 0 79.076 37.547 49.493 85.902z" />
<glyph unicode="&#xe909;" d="M568.889 338.204h-113.778v308.907h113.778zM568.889 135.111h-113.778v113.778h113.778z" />
<glyph unicode="&#xe90a;" glyph-name="org-icon-arrow-left" d="M730.191 93.538l-327.68 373.366 327.68 373.366c11.503 12.775 18.539 29.77 18.539 48.408 0 21.007-8.938 39.926-23.219 53.162l-0.047 0.043c-12.543 11.438-29.301 18.443-47.695 18.443-21.117 0-40.078-9.233-53.066-23.883l-0.064-0.074-371.003-420.628c-10.923-12.718-17.572-29.383-17.572-47.6 0-2.099 0.088-4.177 0.261-6.231l-0.018 0.268c1.605-16.672 8.183-31.56 18.213-43.44l-0.096 0.117 370.215-419.84c12.495-14.944 31.135-24.39 51.983-24.418h0.005c18.75 0.589 35.746 7.642 48.941 18.992l-0.104-0.087c13.876 13.226 22.505 31.851 22.505 52.491 0 18.234-6.734 34.895-17.852 47.632l0.073-0.086z" />
<glyph unicode="&#xe90b;" glyph-name="org-icon-arrow-right" d="M730.191 514.954l-369.428 420.628c-11.458 13.054-27.354 21.968-45.31 24.377l-0.376 0.041c-2.322 0.282-5.010 0.443-7.736 0.443-18.46 0-35.195-7.384-47.413-19.359l0.011 0.011c-14.584-13.304-23.699-32.389-23.699-53.602 0-18.451 6.896-35.292 18.25-48.085l-0.065 0.075 327.68-372.578-327.68-373.366c-10.878-12.705-17.499-29.336-17.499-47.514 0-20.992 8.83-39.921 22.977-53.277l0.036-0.033c12.476-11.226 29.065-18.098 47.258-18.117h0.004c21.151 0.198 40.153 9.233 53.522 23.586l0.041 0.045 370.215 420.628c10.923 12.718 17.572 29.383 17.572 47.6 0 2.099-0.088 4.177-0.261 6.231l0.018-0.268c-0.855 16.549-7.595 31.377-18.148 42.569l0.031-0.033z" />
<glyph unicode="&#xe90c;" glyph-name="org-icon-button-minus-outline" d="M512 960c-282.77 0-512-229.23-512-512s229.23-512 512-512c282.77 0 512 229.23 512 512v0c0 282.77-229.23 512-512 512v0zM512-32c-265.097 0-480 214.903-480 480s214.903 480 480 480c265.097 0 480-214.903 480-480v0c0-265.097-214.903-480-480-480v0zM288 480h448v-64h-448v64z" />
<glyph unicode="&#xe90d;" glyph-name="org-icon-button-plus-outline" d="M512 960c-282.77 0-512-229.23-512-512s229.23-512 512-512c282.77 0 512 229.23 512 512v0c0 282.77-229.23 512-512 512v0zM512-32c-265.097 0-480 214.903-480 480s214.903 480 480 480c265.097 0 480-214.903 480-480v0c0-265.097-214.903-480-480-480v0zM288 480h448v-64h-448v64zM480 672h64v-448h-64v448z" />
<glyph unicode="&#xe90e;" glyph-name="org-icon-account-outline" d="M512-64c-282.77 0-512 229.23-512 512s229.23 512 512 512c282.77 0 512-229.23 512-512v0c0-282.77-229.23-512-512-512v0zM512 874.667c-235.641 0-426.667-191.025-426.667-426.667s191.025-426.667 426.667-426.667c235.641 0 426.667 191.025 426.667 426.667v0c0 235.641-191.025 426.667-426.667 426.667v0zM508.302 78.222c-1.011-0.010-2.204-0.015-3.4-0.015-125.331 0-236.396 61.084-305.046 155.104l-0.745 1.071c0 98.418 206.222 152.462 309.191 152.462s307.769-54.044 309.191-152.462c-69.338-95.089-180.359-156.177-305.647-156.177-1.246 0-2.49 0.006-3.733 0.018l0.19-0.001zM508.302 776.249c1.032 0.025 2.246 0.040 3.465 0.040 82.188 0 149.072-65.521 151.269-147.179l0.004-0.203c-2.045-81.986-68.992-147.666-151.28-147.666-1.216 0-2.428 0.014-3.637 0.043l0.18-0.003c-1.027-0.025-2.238-0.039-3.451-0.039-82.231 0-149.113 65.713-150.999 147.491l-0.003 0.175c2.664 81.328 69.233 146.245 150.964 146.245 1.227 0 2.451-0.015 3.671-0.044l-0.181 0.003z" />
<glyph unicode="&#xe90f;" glyph-name="org-icon-account" d="M512 960c-282.77 0-512-229.23-512-512v0 0 0c0-0.182 0-0.397 0-0.612 0-273.966 215.178-497.674 485.748-511.339l1.221-0.049c8.249 0 16.498 0 25.031 0s16.782 0 25.031 0c271.791 13.714 486.969 237.422 486.969 511.388 0 0.215 0 0.43 0 0.646v-0.033c0 282.77-229.23 512-512 512v0zM508.302 775.111c1.032 0.025 2.246 0.040 3.465 0.040 82.188 0 149.072-65.521 151.269-147.179l0.004-0.203c-2.045-81.986-68.992-147.666-151.28-147.666-1.216 0-2.428 0.014-3.637 0.043l0.18-0.003c-1.027-0.025-2.238-0.039-3.451-0.039-82.231 0-149.113 65.713-150.999 147.491l-0.003 0.175c2.045 81.828 68.865 147.382 150.996 147.382 1.216 0 2.428-0.014 3.637-0.043l-0.179 0.003zM508.302 77.084c-0.768-0.006-1.675-0.009-2.584-0.009-125.821 0-237.264 61.562-305.85 156.209l-0.757 1.098c0 98.418 206.222 152.462 309.191 152.462s307.769-54.044 309.191-152.462c-69.338-95.089-180.359-156.177-305.647-156.177-1.246 0-2.49 0.006-3.733 0.018l0.19-0.001z" />
<glyph unicode="&#xe910;" glyph-name="org-icon-alert" d="M1010.916 107.236l-442.027 731.022c-7.991 22.386-29.010 38.119-53.703 38.119-9.024 0-17.557-2.101-25.137-5.841l0.333 0.149c-14.73-6.48-26.192-18.126-32.276-32.591l-0.151-0.404-444.871-729.884c-29.582-48.924-7.396-86.471 49.493-86.471h898.844c56.889 0 79.076 37.547 49.493 85.902zM568.889 135.111h-113.778v113.778h113.778zM568.889 338.204h-113.778v308.907h113.778z" />
<glyph unicode="&#xe911;" glyph-name="org-icon-arrow-down" d="M515.904 192c13.183 0.944 24.987 6.19 34.173 14.325l-0.061-0.053 455.104 400.704c11.59 10.099 18.873 24.885 18.873 41.372 0 14.387-5.546 27.479-14.617 37.255l0.032-0.035c-10.555 11.391-25.594 18.497-42.293 18.497-14.603 0-27.937-5.434-38.090-14.391l0.063 0.054-417.088-367.232-417.088 367.232c-10.090 8.902-23.424 14.337-38.027 14.337-16.699 0-31.738-7.106-42.259-18.46l-0.034-0.037c-9.039-9.741-14.585-22.832-14.585-37.22 0-16.487 7.283-31.273 18.807-41.316l0.066-0.056 455.104-400.576c10.12-9.012 23.533-14.518 38.232-14.518 1.297 0 2.585 0.043 3.861 0.127l-0.173-0.009z" />
<glyph unicode="&#xe912;" glyph-name="org-icon-arrow-up" d="M508.096 704c-13.183-0.944-24.987-6.19-34.173-14.325l0.061 0.053-455.104-400.704c-11.59-10.099-18.873-24.885-18.873-41.372 0-14.387 5.546-27.479 14.617-37.255l-0.032 0.035c10.555-11.391 25.594-18.497 42.293-18.497 14.603 0 27.937 5.434 38.090 14.391l-0.063-0.054 417.088 367.232 417.088-367.232c10.090-8.902 23.424-14.337 38.027-14.337 16.699 0 31.738 7.106 42.259 18.46l0.034 0.037c9.039 9.741 14.585 22.832 14.585 37.22 0 16.487-7.283 31.273-18.807 41.316l-0.066 0.056-455.104 400.576c-10.12 9.012-23.533 14.518-38.232 14.518-1.297 0-2.585-0.043-3.861-0.127l0.173 0.009z" />
<glyph unicode="&#xe913;" glyph-name="org-icon-arrow" d="M768 451.904c-0.944 13.183-6.19 24.987-14.325 34.173l0.053-0.061-400.704 455.104c-10.099 11.59-24.885 18.873-41.372 18.873-14.387 0-27.479-5.546-37.255-14.617l0.035 0.032c-11.391-10.555-18.497-25.594-18.497-42.293 0-14.603 5.434-27.937 14.391-38.090l-0.054 0.063 367.232-417.088-367.232-417.088c-8.902-10.090-14.337-23.424-14.337-38.027 0-16.699 7.106-31.738 18.46-42.259l0.037-0.034c9.741-9.039 22.832-14.585 37.22-14.585 16.487 0 31.273 7.283 41.316 18.807l0.056 0.066 400.576 455.104c9.012 10.12 14.518 23.533 14.518 38.232 0 1.297-0.043 2.585-0.127 3.861l0.009-0.173z" />
<glyph unicode="&#xe914;" glyph-name="org-icon-bell-outline" d="M512-64c-282.77 0-512 229.23-512 512s229.23 512 512 512c282.77 0 512-229.23 512-512v0c0-282.77-229.23-512-512-512v0zM512 874.667c-235.641 0-426.667-191.025-426.667-426.667s191.025-426.667 426.667-426.667c235.641 0 426.667 191.025 426.667 426.667v0c0 235.641-191.025 426.667-426.667 426.667v0zM789.618 267.662v-30.72h-564.338v30.72l62.578 61.724v184.32c0.557 97.625 65.91 179.835 155.205 205.842l1.523 0.38v8.818c2.281 32.851 29.489 58.636 62.72 58.636s60.439-25.785 62.709-58.439l0.011-0.197v-8.818c90.819-26.387 156.172-108.597 156.729-206.158v-184.384l62.578-61.724zM568.889 206.222c-2.281-32.851-29.489-58.636-62.72-58.636s-60.439 25.785-62.709 58.439l-0.011 0.197z" />
<glyph unicode="&#xe915;" glyph-name="org-icon-bell" d="M512 960c-282.77 0-512-229.23-512-512s229.23-512 512-512c282.77 0 512 229.23 512 512v0c0 282.77-229.23 512-512 512v0zM507.164 143.644c-34.554 0.159-62.542 28.047-62.862 62.547v0.030h124.587c-0.308-34.138-27.659-61.787-61.651-62.576l-0.074-0.001zM789.618 237.227h-564.338v30.436l62.578 61.724v184.32c0.557 97.625 65.91 179.835 155.205 205.842l1.523 0.38v8.818c2.281 32.851 29.489 58.636 62.72 58.636s60.439-25.785 62.709-58.439l0.011-0.197v-8.818c90.819-26.387 156.172-108.597 156.729-206.158v-184.384l62.578-61.724z" />
<glyph unicode="&#xe916;" glyph-name="org-icon-blank" d="M238.933 823.467h750.933v-546.133h-750.933zM853.333 686.933h-477.867v-273.067h477.867zM662.187 44.203h-662.187v438.204h136.533v-301.67h525.653z" />
<glyph unicode="&#xe917;" glyph-name="org-icon-return" d="M13.158 676.403l1.894 1.792 275.968 220.774c7.711 6.401 17.711 10.286 28.618 10.286 24.827 0 44.954-20.126 44.954-44.954 0-14.492-6.858-27.383-17.505-35.604l-0.104-0.077-173.824-139.059h479.642c193.867 0 351.027-157.16 351.027-351.027 0-0.108 0-0.216 0-0.324v0.017c0-193.867-157.16-351.027-351.027-351.027v0h-415.795c-24.827 0-44.954 20.126-44.954 44.954s20.126 44.954 44.954 44.954h415.846c144.213 0 261.12 116.907 261.12 261.12v0c0 0.091 0 0.199 0 0.307 0 144.213-116.907 261.12-261.12 261.12h-480.512l184.32-148.48c9.123-7.258 15.25-17.945 16.421-30.081l0.014-0.178c0.139-1.33 0.218-2.874 0.218-4.436 0-23.197-17.452-42.319-39.942-44.952l-0.212-0.020c-1.608-0.211-3.468-0.332-5.356-0.332-10.547 0-20.216 3.761-27.738 10.015l0.071-0.057-283.443 228.454c-2.46 2.015-4.641 4.196-6.591 6.574l-0.065 0.082c-2.759 3.264-5.054 7.039-6.711 11.14l-0.099 0.278-0.563 1.382c-0.096 0.188-0.183 0.409-0.249 0.638l-0.007 0.027c-0.234 0.561-0.479 1.277-0.683 2.009l-0.034 0.142c-1.11 3.543-1.749 7.617-1.749 11.841 0 0.283 0.003 0.566 0.009 0.848l-0.001-0.042v3.789c-0.012 0.199-0.019 0.431-0.019 0.666s0.007 0.467 0.020 0.697l-0.001-0.032 1.331 7.066c0.582 2.258 1.283 4.201 2.139 6.056l-0.091-0.219c0.378 0.936 0.738 1.694 1.137 2.428l-0.062-0.124 2.458 4.352c1.893 2.708 3.965 5.073 6.267 7.191l0.031 0.028z" />
<glyph unicode="&#xe918;" glyph-name="org-icon-user-outline" d="M512-64c-282.77 0-512 229.23-512 512s229.23 512 512 512c282.77 0 512-229.23 512-512v0c0-282.77-229.23-512-512-512v0zM512 908.8c-254.493 0-460.8-206.307-460.8-460.8s206.307-460.8 460.8-460.8c254.493 0 460.8 206.307 460.8 460.8v0c0 254.493-206.307 460.8-460.8 460.8v0zM806.4 252.928c-78.006 74.7-184.032 120.687-300.8 120.687s-222.794-45.987-300.958-120.837l0.158 0.15c-4.587-4.776-7.412-11.274-7.412-18.432s2.825-13.656 7.421-18.441l-0.009 0.009c4.885-4.767 11.571-7.707 18.944-7.707s14.059 2.94 18.95 7.712l-0.006-0.005c68.492 66.083 161.843 106.798 264.704 106.798s196.212-40.715 264.818-106.907l-0.114 0.109c4.714-4.73 11.229-7.662 18.428-7.68h0.004c7.284 0.1 13.818 3.226 18.417 8.176l0.015 0.016c3.723 4.544 5.98 10.415 5.98 16.812 0 7.714-3.281 14.662-8.523 19.524l-0.017 0.016zM504.832 417.28c-88.287 0.291-159.744 71.928-159.744 160.255 0 88.507 71.749 160.256 160.256 160.256s160.256-71.749 160.256-160.255v0c-0.864-88.337-72.389-159.683-160.713-160.256h-0.055zM504.832 685.568c-59.505-0.58-107.519-48.952-107.519-108.539 0-59.947 48.597-108.544 108.544-108.544s108.544 48.597 108.544 108.544c0 0.178 0 0.357-0.001 0.535v-0.027c-0.288 59.729-48.774 108.037-108.543 108.037-0.36 0-0.721-0.002-1.080-0.005h0.055z" />
<glyph unicode="&#xe919;" glyph-name="org-icon-user" d="M806.4 216.576v0 0 0zM512 960c-282.77 0-512-229.23-512-512s229.23-512 512-512c282.77 0 512 229.23 512 512v0c0 282.77-229.23 512-512 512v0zM512 734.72c0.148 0 0.324 0.001 0.499 0.001 89.355 0 161.792-72.437 161.792-161.792s-72.437-161.792-161.792-161.792c-89.355 0-161.792 72.437-161.792 161.792 0 0.72 0.005 1.439 0.014 2.156l-0.001-0.109c1.153 88.295 72.859 159.463 161.253 159.744h0.027zM814.080 207.872v0c-4.614-4.966-11.148-8.092-18.414-8.192h-0.018c-0.132-0.002-0.288-0.004-0.444-0.004-7.228 0-13.771 2.937-18.499 7.683l-0.001 0.001c-69.224 66.778-163.568 107.919-267.52 107.919s-198.296-41.142-267.636-108.030l0.116 0.111c-4.912-4.918-11.701-7.96-19.2-7.96s-14.288 3.042-19.2 7.96v0c-3.856 4.588-6.199 10.559-6.199 17.078 0 7.32 2.954 13.951 7.736 18.764l-0.001-0.001c78.834 76.248 186.377 123.237 304.896 123.237s226.063-46.989 305.018-123.355l-0.122 0.118c4.746-4.729 7.683-11.271 7.683-18.499 0-6.43-2.324-12.317-6.178-16.867l0.031 0.038zM512 463.872c2.239-0.163 4.852-0.256 7.486-0.256 60.513 0 109.568 49.055 109.568 109.568s-49.055 109.568-109.568 109.568c-2.634 0-5.246-0.093-7.834-0.276l0.348 0.020c0 0-0.001 0-0.001 0-60.796 0-110.080-49.284-110.080-110.080 0-0.18 0-0.36 0.001-0.54v0.028c0.577-59.79 49.18-108.037 109.051-108.037 0.362 0 0.723 0.002 1.084 0.005h-0.055z" />
<glyph unicode="&#xe91a;" glyph-name="flag-variant" d="M256 832c23.564 0 42.667-19.103 42.667-42.667v0-37.547c45.227 18.773 106.667 37.547 170.667 37.547 128 0 128-85.333 213.333-85.333 128 0 170.667 85.333 170.667 85.333v-341.333c0 0-42.667-85.333-170.667-85.333s-128 85.333-213.333 85.333c-128 0-170.667-85.333-170.667-85.333v-298.667h-85.333v725.333c0 23.564 19.103 42.667 42.667 42.667v0z" />
</font>
</defs>
</svg>
