<svg xmlns="http://www.w3.org/2000/svg" viewBox="0 0 20 20"><defs><style>.cls-1{fill:#008a19;}</style></defs><g id="レイヤー_2" data-name="レイヤー 2"><g id="レイヤー_1-2" data-name="レイヤー 1"><polygon class="cls-1" points="15.75 14.52 15.75 14.52 15.75 14.52 15.75 14.52"/><path class="cls-1" d="M10,0A10,10,0,1,0,20,10,10,10,0,0,0,10,0Zm0,4.4A3.16,3.16,0,1,1,6.85,7.52,3.16,3.16,0,0,1,10,4.4Zm5.9,10.29h0a.5.5,0,0,1-.36.16h0a.51.51,0,0,1-.37-.15,7.53,7.53,0,0,0-10.45,0,.53.53,0,0,1-.75,0A.52.52,0,0,1,4,14a8.57,8.57,0,0,1,11.91,0A.51.51,0,0,1,15.94,14.69Z"/><path class="cls-1" d="M10,9.69a2.14,2.14,0,1,0,0-4.27h0A2.15,2.15,0,0,0,7.85,7.58,2.13,2.13,0,0,0,10,9.69Z"/></g></g></svg>