<svg id="Button_X-Large" xmlns="http://www.w3.org/2000/svg" width="290" height="60" viewBox="0 0 290 60">
  <g id="長方形_18" data-name="長方形 18" fill="#fff" stroke="#666" stroke-width="1">
    <rect width="290" height="60" rx="4" stroke="none"/>
    <rect x="0.5" y="0.5" width="289" height="59" rx="3.5" fill="none"/>
  </g>
  <g id="StartDashロゴ_支給データ_" data-name="StartDashロゴ（支給データ）" transform="translate(83.048 19.5)">
    <path id="パス_1148" data-name="パス 1148" d="M11.41,11.924A12.6,12.6,0,0,0,7.2,11.207c-1.595,0-3.134.469-3.134,2.1,0,1.379,1.127,2.069,3.712,3.117,3.244,1.352,5.444,2.676,5.444,6.123,0,3.944-3.409,5.792-7.258,5.792A18.652,18.652,0,0,1,0,27.344l.715-3.282a14.334,14.334,0,0,0,5.114,1.048c2.172,0,3.382-.772,3.382-2.29s-1.182-2.206-3.849-3.255C2.227,18.3.055,16.724.055,13.69c0-4.082,3.574-5.71,6.9-5.71A17.022,17.022,0,0,1,12.1,8.7Z" transform="translate(0 -7.732)" fill="#040000"/>
    <path id="パス_1149" data-name="パス 1149" d="M445.97,63.292H448.2V59.43h3.9v3.862h3.024v2.952H452.1v6.51c0,1.986.275,2.29,1.65,2.29a9.015,9.015,0,0,0,1.292-.11v2.924a23.724,23.724,0,0,1-2.529.138c-3.629,0-4.317-1.462-4.317-4.22v-7.53H445.97V63.292Z" transform="translate(-432.103 -57.582)" fill="#040000"/>
    <path id="パス_1150" data-name="パス 1150" d="M799.756,178.359c0-1.517-.99-2.427-3.217-2.427a11,11,0,0,0-3.739.717l-.715-2.813a15.242,15.242,0,0,1,4.729-.855c4.839,0,6.846,2.041,6.846,5.572v6.013a20.7,20.7,0,0,0,.22,3.31h-3.464a10.2,10.2,0,0,1-.3-1.793h-.055a4.675,4.675,0,0,1-4.206,2.124c-2.53,0-5.251-1.159-5.251-4.524,0-4.276,4.179-4.965,9.155-4.965v-.359Zm-.522,2.786c-2.667,0-4.839.414-4.839,2.372a1.9,1.9,0,0,0,2.145,1.986,3.082,3.082,0,0,0,3.217-3.337v-1.021h-.522Z" transform="translate(-766.016 -167.601)" fill="#040000"/>
    <path id="パス_1151" data-name="パス 1151" d="M1325.34,176.042a5.046,5.046,0,0,0-1.127-.11c-1.925,0-3.519,1.241-3.519,4.91v7.034h-3.9V173.311h3.822v1.9h.055a3.812,3.812,0,0,1,3.794-2.234c.357,0,.742.028,1.072.055Z" transform="translate(-1275.845 -167.601)" fill="#040000"/>
    <path id="パス_1152" data-name="パス 1152" d="M1632.6,63.292h2.227V59.43h3.9v3.862h3.024v2.952h-3.024v6.51c0,1.986.275,2.29,1.65,2.29a9.016,9.016,0,0,0,1.292-.11v2.924a23.724,23.724,0,0,1-2.529.138c-3.629,0-4.317-1.462-4.317-4.22v-7.53H1632.6V63.292Z" transform="translate(-1581.835 -57.582)" fill="#040000"/>
    <path id="パス_1153" data-name="パス 1153" d="M2009.26,18.63h6.681c6.461,0,9.9,3.7,9.9,9.764s-3.464,9.93-9.9,9.93h-6.681Zm4.014,16.467h2.09c4.481,0,6.461-2.648,6.461-6.647s-1.979-6.592-6.461-6.592h-2.09Z" transform="translate(-1946.782 -18.051)" fill="#040000"/>
    <path id="パス_1154" data-name="パス 1154" d="M2610.085,178.359c0-1.517-.99-2.427-3.217-2.427a11,11,0,0,0-3.739.717l-.715-2.813a15.243,15.243,0,0,1,4.729-.855c4.839,0,6.846,2.041,6.846,5.572v6.013a20.667,20.667,0,0,0,.22,3.31h-3.464a10.192,10.192,0,0,1-.3-1.793h-.055a4.676,4.676,0,0,1-4.207,2.124c-2.53,0-5.251-1.159-5.251-4.524,0-4.276,4.179-4.965,9.155-4.965v-.359Zm-.522,2.786c-2.667,0-4.839.414-4.839,2.372a1.9,1.9,0,0,0,2.145,1.986,3.082,3.082,0,0,0,3.217-3.337v-1.021h-.522Z" transform="translate(-2520.054 -167.601)" fill="#040000"/>
    <path id="パス_1155" data-name="パス 1155" d="M3108.285,176.7a10.4,10.4,0,0,0-3.959-.772c-1.1,0-1.924.276-1.924,1.186,0,.8.577,1.241,2.694,1.9,3.079.965,4.839,2.179,4.839,4.744,0,3.31-3.134,4.441-6.021,4.441a15.289,15.289,0,0,1-5.444-1.021l.77-2.979a13.127,13.127,0,0,0,4.646,1.048c1.485,0,2.337-.331,2.337-1.3,0-.855-.77-1.3-3.052-2.014-3.134-1.021-4.454-2.372-4.454-4.441,0-3.172,2.86-4.524,5.664-4.524a14.035,14.035,0,0,1,4.756.827l-.852,2.9Z" transform="translate(-3002.124 -167.601)" fill="#040000"/>
    <path id="パス_1156" data-name="パス 1156" d="M3551.624,0V7.668h.055A4.683,4.683,0,0,1,3556,5.379a5,5,0,0,1,5.362,5.3v9.6h-3.9V12.137c0-2.372-.55-3.807-2.695-3.807-1.512,0-3.134,1.076-3.134,4.055v7.889h-3.9V0h3.9Z" transform="translate(-3437.405)" fill="#040000"/>
  </g>
</svg>
