<svg id="Button_X-Large" xmlns="http://www.w3.org/2000/svg" width="290" height="60" viewBox="0 0 290 60">
  <rect id="長方形_18" data-name="長方形 18" width="290" height="60" rx="4" fill="#00ad19"/>
  <g id="StartDashOffice" transform="translate(53.99 21)">
    <path id="パス_1157" data-name="パス 1157" d="M10.4,11.532a11.6,11.6,0,0,0-3.831-.646c-1.452,0-2.854.422-2.854,1.888,0,1.242,1.027,1.863,3.38,2.807,2.954,1.217,4.958,2.41,4.958,5.515,0,3.552-3.1,5.217-6.61,5.217A17.161,17.161,0,0,1,.01,25.419l.651-2.956a13.181,13.181,0,0,0,4.657.944c1.978,0,3.08-.7,3.08-2.062s-1.077-1.987-3.506-2.931C2.038,17.271.06,15.855.06,13.122.06,9.446,3.315,7.98,6.345,7.98a15.665,15.665,0,0,1,4.682.646L10.4,11.532Z" transform="translate(0 -7.754)" fill="#fff"/>
    <path id="パス_1158" data-name="パス 1158" d="M445.98,62.9h2.028V59.43h3.555V62.9h2.754v2.655h-2.754v5.856c0,1.787.25,2.06,1.5,2.06a8.31,8.31,0,0,0,1.177-.1v2.63a21.868,21.868,0,0,1-2.3.124c-3.305,0-3.931-1.315-3.931-3.8V65.559H445.98V62.9Z" transform="translate(-433.341 -57.747)" fill="#fff"/>
    <path id="パス_1159" data-name="パス 1159" d="M798.948,177.879c0-1.382-.9-2.211-2.93-2.211a10.015,10.015,0,0,0-3.405.653l-.651-2.562a13.882,13.882,0,0,1,4.307-.779c4.407,0,6.235,1.859,6.235,5.074v5.476a18.848,18.848,0,0,0,.2,3.014h-3.155a9.3,9.3,0,0,1-.276-1.633h-.05a4.258,4.258,0,0,1-3.831,1.934c-2.3,0-4.782-1.055-4.782-4.12,0-3.894,3.806-4.522,8.338-4.522v-.327Zm-.476,2.537c-2.429,0-4.407.377-4.407,2.16a1.73,1.73,0,0,0,1.953,1.809,2.807,2.807,0,0,0,2.93-3.039v-.929h-.476Z" transform="translate(-768.211 -168.288)" fill="#fff"/>
    <path id="パス_1160" data-name="パス 1160" d="M1324.587,175.768a4.6,4.6,0,0,0-1.026-.1c-1.753,0-3.205,1.13-3.205,4.471v6.406H1316.8V173.281h3.48v1.733h.05a3.471,3.471,0,0,1,3.455-2.035c.325,0,.676.025.976.05Z" transform="translate(-1279.925 -168.288)" fill="#fff"/>
    <path id="パス_1161" data-name="パス 1161" d="M1632.61,62.9h2.028V59.43h3.555V62.9h2.754v2.655h-2.754v5.856c0,1.787.25,2.06,1.5,2.06a8.311,8.311,0,0,0,1.177-.1v2.63a21.87,21.87,0,0,1-2.3.124c-3.305,0-3.931-1.315-3.931-3.8V65.559h-2.028V62.9Z" transform="translate(-1586.895 -57.747)" fill="#fff"/>
    <path id="パス_1162" data-name="パス 1162" d="M2009.27,18.63h6.084c5.884,0,9.014,3.328,9.014,8.79s-3.155,8.94-9.014,8.94h-6.084V18.63Zm3.656,14.825h1.9c4.081,0,5.884-2.384,5.884-5.984s-1.8-5.935-5.884-5.935h-1.9Z" transform="translate(-1953.036 -18.102)" fill="#fff"/>
    <path id="パス_1163" data-name="パス 1163" d="M2609.278,177.879c0-1.382-.9-2.211-2.93-2.211a10.014,10.014,0,0,0-3.405.653l-.651-2.562a13.882,13.882,0,0,1,4.307-.779c4.407,0,6.235,1.859,6.235,5.074v5.476a18.841,18.841,0,0,0,.2,3.014h-3.155a9.3,9.3,0,0,1-.275-1.633h-.05a4.258,4.258,0,0,1-3.831,1.934c-2.3,0-4.782-1.055-4.782-4.12,0-3.894,3.806-4.522,8.338-4.522v-.327Zm-.476,2.537c-2.429,0-4.407.377-4.407,2.16a1.731,1.731,0,0,0,1.953,1.809,2.807,2.807,0,0,0,2.93-3.039v-.929h-.476Z" transform="translate(-2528.134 -168.288)" fill="#fff"/>
    <path id="パス_1164" data-name="パス 1164" d="M3107.419,176.371a9.474,9.474,0,0,0-3.605-.7c-1,0-1.753.251-1.753,1.08,0,.728.526,1.13,2.454,1.733,2.8.879,4.407,1.985,4.407,4.321,0,3.014-2.854,4.044-5.484,4.044a13.922,13.922,0,0,1-4.958-.929l.7-2.713a11.956,11.956,0,0,0,4.231.955c1.352,0,2.128-.3,2.128-1.181,0-.779-.7-1.181-2.779-1.834-2.854-.929-4.056-2.16-4.056-4.044,0-2.889,2.6-4.12,5.158-4.12a12.782,12.782,0,0,1,4.332.754l-.776,2.638Z" transform="translate(-3011.739 -168.288)" fill="#fff"/>
    <path id="パス_1165" data-name="パス 1165" d="M3551.285,0V6.906h.05a4.277,4.277,0,0,1,3.931-2.062,4.524,4.524,0,0,1,4.883,4.769v8.644h-3.555V10.93c0-2.136-.5-3.428-2.454-3.428-1.377,0-2.854.969-2.854,3.651v7.1h-3.555V0h3.555Z" transform="translate(-3448.427)" fill="#fff"/>
    <path id="パス_1166" data-name="パス 1166" d="M4338,32.533c-4.933,0-7.787-3.8-7.787-9.141S4333.039,14.2,4338,14.2s7.762,3.8,7.762,9.191-2.854,9.141-7.762,9.141Zm0-17.091c-4.182,0-6.335,3.552-6.335,7.949s2.1,7.9,6.335,7.9,6.31-3.6,6.31-7.9-2.128-7.949-6.31-7.949Z" transform="translate(-4209.033 -13.798)" fill="#fff"/>
    <path id="パス_1167" data-name="パス 1167" d="M4962.184,7.685a19.27,19.27,0,0,0-3.33-.3c-2.429,0-3.43.919-3.43,3.2v.77h7.036V24.477h-1.427V12.529h-5.608V24.477H4954V12.529h-5.959V24.477h-1.427V12.529h-2.879V11.362h2.879V10.294c0-2.509.952-4.074,3.781-4.074a7.2,7.2,0,0,1,2.053.273l-.1,1.143a7.607,7.607,0,0,0-1.928-.248c-1.778,0-2.379.894-2.379,3.155v.82H4954V10.294c0-2.633,1.4-4.074,4.857-4.074a19.765,19.765,0,0,1,3.456.3l-.125,1.167Z" transform="translate(-4805.72 -6.044)" fill="#fff"/>
    <path id="パス_1168" data-name="パス 1168" d="M5721.574,180.883a6.22,6.22,0,0,0-2.579-.5c-3.305,0-5.108,2.562-5.108,5.753s1.778,5.753,5.083,5.753a6.519,6.519,0,0,0,2.68-.5l.25,1.156a7.883,7.883,0,0,1-2.954.528c-4.232,0-6.485-3.039-6.485-6.933s2.429-6.933,6.51-6.933a8.041,8.041,0,0,1,2.93.5l-.326,1.181Z" transform="translate(-5552.681 -174.331)" fill="#fff"/>
    <path id="パス_1169" data-name="パス 1169" d="M6098.611,186.45h-9.791c.075,2.964,1.778,5.426,5.183,5.426a9.58,9.58,0,0,0,3.506-.628l.25,1.156a11.182,11.182,0,0,1-3.806.653c-4.332,0-6.535-3.014-6.535-7.034,0-3.718,2.028-6.833,5.809-6.833s5.384,2.663,5.384,6.456v.8Zm-1.327-1.306c0-2.813-1.377-4.773-4.057-4.773-2.954,0-4.256,2.386-4.407,4.9h8.463v-.126Z" transform="translate(-5917.021 -174.322)" fill="#fff"/>
  </g>
</svg>
