<svg xmlns="http://www.w3.org/2000/svg" viewBox="0 0 36 36"><defs><style>.cls-1{fill:none;}.cls-2{fill:#008a19;}</style></defs><g id="レイヤー_2" data-name="レイヤー 2"><g id="レイヤー_1-2" data-name="レイヤー 1"><g id="楕円形_108" data-name="楕円形 108"><circle class="cls-1" cx="18" cy="18" r="18"/><path class="cls-2" d="M18,36A18,18,0,1,1,36,18,18,18,0,0,1,18,36ZM18,3A15,15,0,1,0,33,18,15,15,0,0,0,18,3Z"/></g><path id="bell-2" class="cls-2" d="M27.76,24.34v1.08H7.92V24.34l2.2-2.17V15.69a7.58,7.58,0,0,1,5.51-7.25V8.13a2.21,2.21,0,0,1,4.41,0v.31a7.58,7.58,0,0,1,5.51,7.25v6.48l2.2,2.17M20,26.5a2.21,2.21,0,0,1-4.41,0"/></g></g></svg>