<svg xmlns="http://www.w3.org/2000/svg" width="17" height="13" viewBox="0 0 17 13">
    <path d="M11.409 9.555a4.4 4.4 0 0 0 0-5.044A2.843 2.843 0 0 1 13.05 4a3.034 3.034 0 0 1 0 6.067 2.843 2.843 0 0 1-1.641-.511M4.975 7.033a2.976 2.976 0 1 1 2.975 3.034 3 3 0 0 1-2.975-3.034m1.7 0a1.275 1.275 0 1 0 1.275-1.3 1.288 1.288 0 0 0-1.275 1.3m7.225 8.234V17H2v-1.733S2 11.8 7.95 11.8s5.95 3.467 5.95 3.467m-1.7 0c-.119-.676-1.13-1.733-4.25-1.733s-4.19 1.135-4.25 1.733M13.857 11.8a4.64 4.64 0 0 1 1.743 3.467V17H19v-1.733s0-3.146-5.151-3.467z" transform="translate(-2 -4)" style="fill:#1867c0"/>
</svg>
